<svg width="512" height="512" viewBox="0 0 512 512" fill="none" xmlns="http://www.w3.org/2000/svg">
<rect width="512" height="512" rx="60" fill="url(#paint0_linear_4_849)"/>
<circle opacity="0.35" cx="256" cy="256" r="210" fill="url(#paint1_radial_4_849)"/>
<path fill-rule="evenodd" clip-rule="evenodd" d="M154.5 154.5V184H358V154.5H154.5ZM144 130C136.268 130 130 136.268 130 144V194.5C130 202.232 136.268 208.5 144 208.5H368.5C376.232 208.5 382.5 202.232 382.5 194.5V144C382.5 136.268 376.232 130 368.5 130H144Z" fill="white"/>
<path fill-rule="evenodd" clip-rule="evenodd" d="M155 250V357.5H357.5V250H155ZM144.5 225.5C136.768 225.5 130.5 231.768 130.5 239.5V368C130.5 375.732 136.768 382 144.5 382H368C375.732 382 382 375.732 382 368V239.5C382 231.768 375.732 225.5 368 225.5H144.5Z" fill="white"/>
<defs>
<linearGradient id="paint0_linear_4_849" x1="0" y1="0" x2="512" y2="512" gradientUnits="userSpaceOnUse">
<stop stop-color="#9C4DF9"/>
<stop offset="1" stop-color="#00B3F9"/>
</linearGradient>
<radialGradient id="paint1_radial_4_849" cx="0" cy="0" r="1" gradientUnits="userSpaceOnUse" gradientTransform="translate(256 256) rotate(90) scale(210)">
<stop stop-color="white"/>
<stop offset="1" stop-color="white" stop-opacity="0"/>
</radialGradient>
</defs>
</svg>
