<svg width="256" height="256" viewBox="0 0 256 256" fill="none" xmlns="http://www.w3.org/2000/svg">
<g clip-path="url(#clip0_34_5545)">
<rect x="7" y="11" width="244" height="244" rx="122" fill="#D9D9D9"/>
<rect width="256" height="265" fill="black"/>
<path style="mix-blend-mode:screen" d="M179.301 308C283.13 308 367.301 223.83 367.301 120C367.301 16.1705 283.13 -68 179.301 -68C75.4712 -68 -8.69922 16.1705 -8.69922 120C-8.69922 223.83 75.4712 308 179.301 308Z" fill="url(#paint0_radial_34_5545)"/>
<path style="mix-blend-mode:screen" d="M75.105 295.483C155.244 295.483 220.21 230.517 220.21 150.378C220.21 70.2382 155.244 5.27246 75.105 5.27246C-5.03431 5.27246 -70 70.2382 -70 150.378C-70 230.517 -5.03431 295.483 75.105 295.483Z" fill="url(#paint1_radial_34_5545)"/>
<path style="mix-blend-mode:screen" d="M29.555 218.415C46.608 218.415 60.4322 204.59 60.4322 187.537C60.4322 170.484 46.608 156.66 29.555 156.66C12.5019 156.66 -1.32227 170.484 -1.32227 187.537C-1.32227 204.59 12.5019 218.415 29.555 218.415Z" fill="url(#paint2_radial_34_5545)"/>
<path style="mix-blend-mode:screen" d="M201.931 166.358C217.67 166.358 230.428 153.599 230.428 137.86C230.428 122.122 217.67 109.363 201.931 109.363C186.192 109.363 173.434 122.122 173.434 137.86C173.434 153.599 186.192 166.358 201.931 166.358Z" fill="url(#paint3_radial_34_5545)"/>
<path style="mix-blend-mode:screen" d="M201.931 166.358C217.67 166.358 230.428 153.599 230.428 137.86C230.428 122.122 217.67 109.363 201.931 109.363C186.192 109.363 173.434 122.122 173.434 137.86C173.434 153.599 186.192 166.358 201.931 166.358Z" fill="url(#paint4_radial_34_5545)"/>
<path style="mix-blend-mode:screen" d="M220.207 80.3468C240.932 70.252 249.55 45.2676 239.455 24.5426C229.36 3.81757 204.376 -4.79986 183.651 5.29497C162.926 15.3898 154.308 40.3741 164.403 61.0991C174.498 81.8241 199.482 90.4416 220.207 80.3468Z" fill="url(#paint5_radial_34_5545)"/>
<g style="mix-blend-mode:overlay">
<path d="M129 244C65.5908 244 14 192.409 14 129C14 65.5908 65.5908 14 129 14C192.409 14 244 65.5908 244 129C244 192.409 192.409 244 129 244ZM129 15.2044C66.2467 15.2044 15.1926 66.2586 15.1926 129.012C15.1926 191.765 66.2467 242.819 129 242.819C191.753 242.819 242.807 191.765 242.807 129.012C242.807 66.2586 191.753 15.2044 129 15.2044Z" fill="white"/>
</g>
<path d="M82.3333 63H77.5H75C68.3726 63 63 68.3726 63 75V109C63 115.627 68.3726 121 75 121H109C115.627 121 121 115.627 121 109V75C121 68.3726 115.627 63 109 63L106.939 63H104" stroke="#EBEBEB" stroke-width="6" stroke-linecap="round"/>
<rect x="88" y="60" width="10" height="6" rx="3" fill="#FF5B8C"/>
<path d="M193 174V178.5V181C193 187.627 187.627 193 181 193H147C140.373 193 135 187.627 135 181V147C135 140.373 140.373 135 147 135H181C187.627 135 193 140.373 193 147L193 149.061V152" stroke="#EBEBEB" stroke-width="6" stroke-linecap="round"/>
<rect width="10" height="6" rx="3" transform="matrix(0 -1 -1 0 196 168)" fill="#00B787"/>
<rect x="63" y="135" width="58" height="58" rx="12" stroke="#EBEBEB" stroke-width="6" stroke-linejoin="round"/>
<path d="M137 72H190.5" stroke="#FFBE40" stroke-width="6" stroke-linecap="round" stroke-linejoin="round"/>
<path d="M137 92H190.5" stroke="#FFBE40" stroke-width="6" stroke-linecap="round" stroke-linejoin="round"/>
<path d="M137 112H190.5" stroke="#FFBE40" stroke-width="6" stroke-linecap="round" stroke-linejoin="round"/>
</g>
<defs>
<radialGradient id="paint0_radial_34_5545" cx="0" cy="0" r="1" gradientUnits="userSpaceOnUse" gradientTransform="translate(179.301 120) scale(188)">
<stop offset="0.1" stop-color="#CE4140"/>
<stop offset="0.19" stop-color="#A13232"/>
<stop offset="0.28" stop-color="#762524"/>
<stop offset="0.38" stop-color="#521919"/>
<stop offset="0.48" stop-color="#341010"/>
<stop offset="0.58" stop-color="#1D0909"/>
<stop offset="0.7" stop-color="#0C0403"/>
<stop offset="0.83" stop-color="#030000"/>
<stop offset="0.99"/>
</radialGradient>
<radialGradient id="paint1_radial_34_5545" cx="0" cy="0" r="1" gradientUnits="userSpaceOnUse" gradientTransform="translate(75.105 150.378) scale(145.105 145.105)">
<stop offset="0.1" stop-color="#6300EB"/>
<stop offset="0.14" stop-color="#5900D3"/>
<stop offset="0.22" stop-color="#4400A2"/>
<stop offset="0.31" stop-color="#320076"/>
<stop offset="0.41" stop-color="#220052"/>
<stop offset="0.5" stop-color="#150034"/>
<stop offset="0.61" stop-color="#0C001D"/>
<stop offset="0.71" stop-color="#05000C"/>
<stop offset="0.84" stop-color="#010003"/>
<stop offset="0.99"/>
</radialGradient>
<radialGradient id="paint2_radial_34_5545" cx="0" cy="0" r="1" gradientUnits="userSpaceOnUse" gradientTransform="translate(29.555 187.537) scale(30.8772)">
<stop offset="0.1" stop-color="#6300EB"/>
<stop offset="0.14" stop-color="#5900D3"/>
<stop offset="0.22" stop-color="#4400A2"/>
<stop offset="0.31" stop-color="#320076"/>
<stop offset="0.41" stop-color="#220052"/>
<stop offset="0.5" stop-color="#150034"/>
<stop offset="0.61" stop-color="#0C001D"/>
<stop offset="0.71" stop-color="#05000C"/>
<stop offset="0.84" stop-color="#010003"/>
<stop offset="0.99"/>
</radialGradient>
<radialGradient id="paint3_radial_34_5545" cx="0" cy="0" r="1" gradientUnits="userSpaceOnUse" gradientTransform="translate(201.931 137.86) scale(28.4974 28.4975)">
<stop offset="0.1" stop-color="#CE4140"/>
<stop offset="0.19" stop-color="#A13232"/>
<stop offset="0.28" stop-color="#762524"/>
<stop offset="0.38" stop-color="#521919"/>
<stop offset="0.48" stop-color="#341010"/>
<stop offset="0.58" stop-color="#1D0909"/>
<stop offset="0.7" stop-color="#0C0403"/>
<stop offset="0.83" stop-color="#030000"/>
<stop offset="0.99"/>
</radialGradient>
<radialGradient id="paint4_radial_34_5545" cx="0" cy="0" r="1" gradientUnits="userSpaceOnUse" gradientTransform="translate(201.931 137.86) scale(28.4974 28.4975)">
<stop offset="0.1" stop-color="#CE4140"/>
<stop offset="0.19" stop-color="#A13232"/>
<stop offset="0.28" stop-color="#762524"/>
<stop offset="0.38" stop-color="#521919"/>
<stop offset="0.48" stop-color="#341010"/>
<stop offset="0.58" stop-color="#1D0909"/>
<stop offset="0.7" stop-color="#0C0403"/>
<stop offset="0.83" stop-color="#030000"/>
<stop offset="0.99"/>
</radialGradient>
<radialGradient id="paint5_radial_34_5545" cx="0" cy="0" r="1" gradientUnits="userSpaceOnUse" gradientTransform="translate(201.909 42.8644) scale(41.7407 41.7407)">
<stop offset="0.1" stop-color="#CE4140"/>
<stop offset="0.19" stop-color="#A13232"/>
<stop offset="0.28" stop-color="#762524"/>
<stop offset="0.38" stop-color="#521919"/>
<stop offset="0.48" stop-color="#341010"/>
<stop offset="0.58" stop-color="#1D0909"/>
<stop offset="0.7" stop-color="#0C0403"/>
<stop offset="0.83" stop-color="#030000"/>
<stop offset="0.99"/>
</radialGradient>
<clipPath id="clip0_34_5545">
<rect width="256" height="256" rx="128" fill="white"/>
</clipPath>
</defs>
</svg>
